<svg id="SvgjsSvg1001" width="288" height="288" xmlns="http://www.w3.org/2000/svg" version="1.1" xmlns:xlink="http://www.w3.org/1999/xlink" xmlns:svgjs="http://svgjs.com/svgjs"><defs id="SvgjsDefs1002"></defs><g id="SvgjsG1008"><svg xmlns="http://www.w3.org/2000/svg" width="288" height="288" version="1.0" viewBox="0 0 242 208"><path d="M1033 1486 c-47 -15 -64 -29 -86 -72 -20 -39 -21 -80 -12 -401 l8-263 -38 -36 c-43 -41 -37 -54 26 -54 58 0 78 24 100 120 11 46 17 90 15 97
-14 35 77 -8 93 -45 6 -13 11 -41 11 -62 0 -38 -2 -40 -30 -40 -29 0 -70 -29
-70 -50 0 -17 68 -23 214 -18 126 4 148 7 191 29 62 31 86 64 91 125 3 42 2
44 -5 14 -14 -64 -60 -110 -110 -110 -26 0 -26 1 0 44 42 72 34 189 -19 252
-18 21 -102 64 -175 90 -128 45 -248 167 -247 251 0 25 3 23 26 -22 14 -27 36
-61 49 -74 21 -22 26 -23 42 -10 16 12 17 12 6 -2 -7 -9 -10 -19 -6 -22 13
-14 23 -6 23 18 0 33 29 60 97 90 65 29 82 48 83 93 l0 32 -65 0 c-41 0 -83 7
-115 20 -28 11 -52 20 -53 19 -1 0 -21 -6 -44 -13z" transform="matrix(.1 0 0 -.1 0 208)" fill="#ffffff" class="color000 svgShape"></path></svg></g></svg>